<svg id="图层_1" data-name="图层 1" xmlns="http://www.w3.org/2000/svg" viewBox="0 0 1024 1024">
  <defs>
    <style>
      .cls-1, .cls-3, .cls-4 {
        fill: #c49ded;
      }

      .cls-2 {
        fill: #fff;
      }

      .cls-3 {
        font-size: 41.54px;
        font-family: PingFangSC-Semibold-GBpc-EUC-H, PingFang SC;
      }

      .cls-4 {
        font-size: 71.72px;
        font-family: PingFangSC-Medium-GBpc-EUC-H, PingFang SC;
      }
    </style>
  </defs>
  <path class="cls-1" d="M652.09,575.1c-8.66-7.34-6.59-25.79,2.07-26.63,5.46-.38,6.67,6.46,9.69,13.36,1.51,3.44,7.07,4.17,10,1.79,17.42-14.27,28.2-65.05,16.57-96.2a5.27,5.27,0,0,1,3.84-7,23.47,23.47,0,0,1,4.37-.55,6.91,6.91,0,0,0,6.83-6.59,243.45,243.45,0,0,0-65.41-177,5.42,5.42,0,0,1,.68-7.77c4.47-3.71,11-5.56,17.22-5.88a2.45,2.45,0,0,0,1.81-3.92c-19.29-26.49-52.46-35.2-95-26.83a12.38,12.38,0,0,1-11-3.19c-14.35-14-33.51-18.58-52.68-18.21-19.17-.37-38.33,4.25-52.68,18.21a12.38,12.38,0,0,1-11,3.19c-42.54-8.37-75.71.34-95,26.83a2.45,2.45,0,0,0,1.81,3.92c6.26.32,12.75,2.17,17.22,5.88a5.52,5.52,0,0,1,.68,7.77c-44.93,54.07-68.41,113.3-65.41,177a6.91,6.91,0,0,0,6.83,6.59,23.47,23.47,0,0,1,4.37.55,5.27,5.27,0,0,1,3.84,7c-11.63,31.15-.85,81.93,16.57,96.2,2.91,2.38,8.47,1.65,10-1.79,3-6.9,4.23-13.74,9.69-13.36,8.66.84,10.73,19.29,2.07,26.63C297.74,621,266,695,301.41,747.24c23.43,36.43,64.66,33,111.74,27.6L501,618.77l87.89,156.07c47.08,5.44,88.3,8.83,111.73-27.6C736,695,704.32,621,652.09,575.1Z"/>
  <path class="cls-1" d="M784.79,483.81c-4.68,11.68-16.51,22.3-32.47,30.49-18.59,10.59-27.46,28-24.13,54a64.49,64.49,0,0,0-14.4,38.09v.25c0,7-5.13,19.37-24.35,21.06l1,11c16.52-1.46,34.3-12.06,34.38-31.89a52.51,52.51,0,0,1,9-27.52h.76C787.05,577,805.69,513.17,784.79,483.81Z"/>
  <path class="cls-2" d="M417.71,298.38a6.55,6.55,0,0,0-2.61-9.92,34.36,34.36,0,0,0-39.81,53.66,6.56,6.56,0,0,0,10.26-.38Z"/>
  <path class="cls-2" d="M588.25,298.38a6.55,6.55,0,0,1,2.62-9.92,34.36,34.36,0,0,1,39.81,53.66,6.56,6.56,0,0,1-10.26-.38Z"/>
  <path class="cls-2" d="M595.11,434.68c-7.05-3.39-12.23-8.38-12.23-15.53V396.77a70.45,70.45,0,0,0-3.16-21.29c-9-28.2-31.91-50.14-71.65-53.33a73.38,73.38,0,0,0-10.17,0c-39.74,3.19-62.69,25.13-71.65,53.33a70.45,70.45,0,0,0-3.16,21.29v22.38c0,7.15-5.18,12.14-12.23,15.53-34.83,16-35,60-5.46,82.44,33.5,26.55,87.9,17,91.85-8.84V482.82a8.36,8.36,0,0,0-4.68-7.25c-5.41-2.93-16.19-9.53-15.88-21.35.7-9.58,10.16-14.79,26.29-14.81,16.95-.07,25.6,5.23,26.3,14.81.31,11.82-10.47,18.42-15.88,21.35a8.37,8.37,0,0,0-4.69,7.25v25.46c4,25.79,58.36,35.39,91.86,8.84C630.13,494.72,629.94,450.68,595.11,434.68Z"/>
  <rect class="cls-1" x="452.99" y="361.15" width="24.19" height="62.79" rx="12.1"/>
  <rect class="cls-1" x="529.22" y="361.15" width="24.19" height="62.79" rx="12.1"/>
  <path class="cls-2" d="M610.35,789H393.58A23.14,23.14,0,0,1,371,770.85l-32-153a23.16,23.16,0,0,1,22.6-28.18H644.83a23.16,23.16,0,0,1,22.59,28.24l-34.48,153A23.15,23.15,0,0,1,610.35,789Z"/>
  <text class="cls-3" transform="translate(413.39 700.91)">Interview</text>
  <text class="cls-4" transform="translate(380.13 713.74)">{</text>
  <text class="cls-4" transform="matrix(-1, 0, 0, 1, 625.84, 713.74)">{</text>
</svg>
